<svg version="1.1" id="Capa_1"
	xmlns="http://www.w3.org/2000/svg"
	xmlns:xlink="http://www.w3.org/1999/xlink" x="0px" y="0px" viewBox="0 0 148 45" style="enable-background:new 0 0 148 45;" xml:space="preserve">
	<path class='logoline' d="M4.19,39.75c-0.18-0.11-0.36-0.18-0.56-0.21c-0.19-0.04-0.36-0.05-0.51-0.05c-0.23,0-0.46,0.03-0.7,0.09
	c-0.24,0.06-0.46,0.17-0.65,0.33c-0.2,0.15-0.36,0.37-0.48,0.65l0.67,0.24c0.08-0.17,0.21-0.32,0.4-0.47
	c0.19-0.15,0.45-0.22,0.79-0.22c0.32,0,0.56,0.08,0.72,0.24c0.16,0.16,0.24,0.39,0.24,0.68v0.02c0,0.11-0.04,0.19-0.12,0.24
	c-0.08,0.05-0.21,0.08-0.38,0.1c-0.17,0.02-0.4,0.05-0.68,0.08c-0.21,0.03-0.42,0.07-0.63,0.11c-0.21,0.05-0.4,0.12-0.57,0.21
	c-0.17,0.09-0.31,0.22-0.41,0.39c-0.1,0.16-0.15,0.38-0.15,0.64c0,0.3,0.07,0.55,0.21,0.76c0.14,0.21,0.33,0.37,0.56,0.48
	c0.24,0.11,0.5,0.17,0.79,0.17c0.27,0,0.49-0.04,0.67-0.12c0.18-0.08,0.33-0.18,0.44-0.29c0.11-0.11,0.19-0.22,0.24-0.32h0.04v0.62
	h0.7V41.1c0-0.36-0.06-0.65-0.18-0.87C4.52,40.01,4.37,39.85,4.19,39.75 M4.12,42.45c0,0.19-0.05,0.37-0.15,0.54
	s-0.24,0.31-0.43,0.42s-0.42,0.16-0.7,0.16c-0.28,0-0.51-0.06-0.69-0.18c-0.18-0.12-0.27-0.31-0.27-0.55c0-0.18,0.05-0.32,0.14-0.42
	s0.22-0.18,0.38-0.23c0.16-0.05,0.33-0.09,0.51-0.11c0.07-0.01,0.17-0.02,0.29-0.04c0.12-0.02,0.25-0.03,0.38-0.05
	c0.13-0.02,0.24-0.04,0.34-0.07c0.1-0.03,0.17-0.06,0.19-0.1V42.45z"/>
	<path class='logoline' d="M9.59,40.32c0.21-0.14,0.44-0.21,0.72-0.21c0.31,0,0.56,0.08,0.74,0.24c0.18,0.16,0.3,0.35,0.35,0.56h0.7
	c-0.04-0.29-0.14-0.54-0.31-0.75c-0.17-0.21-0.38-0.38-0.63-0.5c-0.26-0.12-0.55-0.18-0.87-0.18c-0.41,0-0.77,0.1-1.08,0.3
	c-0.31,0.2-0.55,0.48-0.72,0.83c-0.17,0.36-0.26,0.76-0.26,1.23c0,0.45,0.08,0.86,0.25,1.21c0.17,0.35,0.4,0.63,0.71,0.83
	c0.31,0.2,0.68,0.3,1.11,0.3c0.34,0,0.63-0.06,0.89-0.19c0.26-0.12,0.46-0.3,0.62-0.51c0.16-0.21,0.25-0.46,0.29-0.73h-0.7
	c-0.04,0.17-0.12,0.31-0.22,0.43c-0.1,0.12-0.23,0.21-0.38,0.27c-0.15,0.06-0.31,0.1-0.5,0.1c-0.28,0-0.52-0.07-0.72-0.22
	C9.38,43.21,9.22,43,9.11,42.74C9,42.48,8.94,42.17,8.94,41.82c0-0.35,0.06-0.64,0.17-0.9C9.23,40.66,9.38,40.46,9.59,40.32"/>
	<path class='logoline' d="M16.06,39.77c-0.31-0.2-0.67-0.29-1.08-0.29s-0.77,0.1-1.08,0.29c-0.31,0.2-0.55,0.47-0.72,0.83
	c-0.17,0.36-0.26,0.77-0.26,1.24c0,0.47,0.09,0.88,0.26,1.24c0.17,0.35,0.42,0.63,0.72,0.82c0.31,0.2,0.67,0.29,1.08,0.29
	s0.77-0.1,1.08-0.29c0.31-0.2,0.55-0.47,0.72-0.82c0.17-0.35,0.26-0.76,0.26-1.24c0-0.48-0.09-0.89-0.26-1.24
	C16.61,40.25,16.37,39.97,16.06,39.77 M16.2,42.7c-0.1,0.26-0.25,0.47-0.45,0.63c-0.2,0.16-0.46,0.24-0.77,0.24
	c-0.31,0-0.57-0.08-0.77-0.24c-0.2-0.16-0.35-0.37-0.45-0.63c-0.1-0.26-0.15-0.55-0.15-0.85s0.05-0.59,0.15-0.85
	s0.25-0.48,0.45-0.64c0.2-0.16,0.46-0.24,0.77-0.24c0.31,0,0.57,0.08,0.77,0.24c0.2,0.16,0.35,0.38,0.45,0.64s0.15,0.55,0.15,0.85
	S16.3,42.43,16.2,42.7"/>
	<path class='logoline' d="M22.71,39.48c-0.33,0-0.61,0.07-0.84,0.21c-0.23,0.14-0.41,0.33-0.53,0.56H21.3c-0.11-0.24-0.27-0.43-0.47-0.57
	c-0.2-0.14-0.45-0.2-0.75-0.2c-0.3,0-0.55,0.07-0.76,0.2c-0.21,0.14-0.36,0.33-0.46,0.57h-0.06v-0.71h-0.68v4.56h0.7v-2.85
	c0-0.22,0.05-0.42,0.14-0.59c0.1-0.17,0.22-0.31,0.38-0.4c0.16-0.1,0.33-0.14,0.51-0.14c0.26,0,0.48,0.08,0.65,0.24
	c0.17,0.16,0.25,0.37,0.25,0.63v3.12h0.71v-2.97c0-0.3,0.09-0.54,0.26-0.73c0.18-0.19,0.43-0.29,0.75-0.29
	c0.25,0,0.47,0.07,0.65,0.22c0.18,0.14,0.28,0.39,0.28,0.72v3.05h0.7v-3.05c0-0.54-0.13-0.93-0.39-1.19
	C23.46,39.61,23.12,39.48,22.71,39.48"/>
	<path class='logoline' d="M28.48,39.77c-0.29-0.19-0.63-0.29-1.02-0.29c-0.3,0-0.53,0.05-0.71,0.15c-0.17,0.1-0.31,0.21-0.4,0.33
	c-0.09,0.12-0.16,0.23-0.21,0.3h-0.08v-0.73h-0.68v6.27h0.7V43.4h0.06c0.05,0.08,0.12,0.19,0.22,0.31c0.1,0.12,0.23,0.24,0.41,0.34
	c0.18,0.1,0.41,0.15,0.7,0.15c0.38,0,0.72-0.1,1.01-0.29c0.29-0.19,0.52-0.47,0.68-0.82c0.16-0.35,0.25-0.77,0.25-1.26
	c0-0.48-0.08-0.89-0.25-1.25C29.01,40.23,28.78,39.96,28.48,39.77 M28.57,42.71c-0.1,0.27-0.25,0.48-0.45,0.63
	c-0.2,0.16-0.44,0.23-0.74,0.23c-0.28,0-0.52-0.08-0.71-0.22c-0.19-0.15-0.34-0.35-0.44-0.61c-0.1-0.26-0.15-0.57-0.15-0.91
	c0-0.34,0.05-0.64,0.15-0.9c0.1-0.26,0.25-0.46,0.44-0.6c0.19-0.14,0.43-0.22,0.72-0.22c0.3,0,0.54,0.08,0.74,0.23
	c0.2,0.15,0.35,0.36,0.44,0.62c0.1,0.26,0.15,0.55,0.15,0.87C28.72,42.15,28.67,42.44,28.57,42.71"/>
	<path class='logoline' d="M33.3,39.75c-0.18-0.11-0.36-0.18-0.56-0.21c-0.19-0.04-0.36-0.05-0.51-0.05c-0.23,0-0.46,0.03-0.7,0.09
	c-0.24,0.06-0.46,0.17-0.65,0.33c-0.2,0.15-0.36,0.37-0.48,0.65l0.67,0.24c0.08-0.17,0.21-0.32,0.4-0.47
	c0.19-0.15,0.45-0.22,0.79-0.22c0.32,0,0.56,0.08,0.72,0.24c0.16,0.16,0.24,0.39,0.24,0.68v0.02c0,0.11-0.04,0.19-0.12,0.24
	c-0.08,0.05-0.21,0.08-0.38,0.1c-0.17,0.02-0.4,0.05-0.68,0.08c-0.21,0.03-0.42,0.07-0.63,0.11c-0.21,0.05-0.4,0.12-0.57,0.21
	c-0.17,0.09-0.31,0.22-0.41,0.39c-0.1,0.16-0.15,0.38-0.15,0.64c0,0.3,0.07,0.55,0.21,0.76c0.14,0.21,0.33,0.37,0.56,0.48
	c0.24,0.11,0.5,0.17,0.79,0.17c0.27,0,0.49-0.04,0.67-0.12c0.18-0.08,0.33-0.18,0.44-0.29c0.11-0.11,0.19-0.22,0.24-0.32h0.04v0.62
	h0.7V41.1c0-0.36-0.06-0.65-0.18-0.87C33.62,40.01,33.47,39.85,33.3,39.75 M33.22,42.45c0,0.19-0.05,0.37-0.15,0.54
	s-0.24,0.31-0.43,0.42s-0.42,0.16-0.7,0.16c-0.28,0-0.51-0.06-0.69-0.18c-0.18-0.12-0.27-0.31-0.27-0.55c0-0.18,0.05-0.32,0.14-0.42
	s0.22-0.18,0.38-0.23c0.16-0.05,0.33-0.09,0.51-0.11c0.07-0.01,0.17-0.02,0.29-0.04c0.12-0.02,0.25-0.03,0.38-0.05
	c0.13-0.02,0.24-0.04,0.34-0.07c0.1-0.03,0.17-0.06,0.19-0.1V42.45z"/>
	<path class='logoline' d="M38.08,39.67c-0.23-0.13-0.5-0.19-0.81-0.19c-0.35,0-0.63,0.07-0.84,0.21c-0.22,0.14-0.38,0.33-0.49,0.56h-0.06
	v-0.71H35.2v4.56h0.7v-2.74c0-0.27,0.05-0.49,0.15-0.68c0.1-0.19,0.24-0.33,0.41-0.42c0.18-0.1,0.38-0.15,0.6-0.15
	c0.32,0,0.58,0.1,0.77,0.3c0.19,0.2,0.28,0.48,0.28,0.84v2.85h0.7v-2.9c0-0.39-0.06-0.71-0.19-0.96
	C38.49,39.99,38.31,39.8,38.08,39.67"/>
	<path class='logoline' d="M41.65,43.18H41.6l-1.26-3.64h-0.76l1.69,4.59l-0.13,0.36c-0.12,0.34-0.27,0.54-0.44,0.61
	c-0.17,0.07-0.38,0.07-0.64,0l-0.18,0.62c0.04,0.02,0.1,0.04,0.19,0.05c0.09,0.02,0.2,0.03,0.32,0.03c0.21,0,0.4-0.04,0.57-0.11
	c0.17-0.08,0.32-0.19,0.45-0.34c0.13-0.15,0.24-0.35,0.32-0.58l1.94-5.22l-0.77-0.01L41.65,43.18z"/>
	<path class='logoline' d="M49.89,39.77c-0.31-0.2-0.67-0.29-1.08-0.29s-0.77,0.1-1.08,0.29c-0.31,0.2-0.55,0.47-0.72,0.83
	c-0.17,0.36-0.26,0.77-0.26,1.24c0,0.47,0.09,0.88,0.26,1.24c0.17,0.35,0.42,0.63,0.72,0.82c0.31,0.2,0.67,0.29,1.08,0.29
	s0.77-0.1,1.08-0.29c0.31-0.2,0.55-0.47,0.72-0.82c0.17-0.35,0.26-0.76,0.26-1.24c0-0.48-0.09-0.89-0.26-1.24
	C50.44,40.25,50.2,39.97,49.89,39.77 M50.03,42.7c-0.1,0.26-0.25,0.47-0.45,0.63c-0.2,0.16-0.46,0.24-0.77,0.24
	c-0.31,0-0.57-0.08-0.77-0.24c-0.2-0.16-0.35-0.37-0.45-0.63c-0.1-0.26-0.15-0.55-0.15-0.85s0.05-0.59,0.15-0.85
	s0.25-0.48,0.45-0.64c0.2-0.16,0.46-0.24,0.77-0.24c0.31,0,0.57,0.08,0.77,0.24c0.2,0.16,0.35,0.38,0.45,0.64s0.15,0.55,0.15,0.85
	S50.12,42.43,50.03,42.7"/>
	<path class='logoline' d="M53.54,37.73c-0.22,0-0.43,0.04-0.62,0.13c-0.2,0.09-0.35,0.22-0.48,0.39c-0.12,0.17-0.18,0.39-0.18,0.65v0.63
	h-0.74v0.59h0.74v3.97h0.7v-3.97h1.02v-0.59h-1.02v-0.46c0-0.23,0.05-0.4,0.15-0.51c0.1-0.12,0.27-0.18,0.5-0.18
	c0.1,0,0.18,0.01,0.25,0.03c0.06,0.02,0.11,0.03,0.15,0.04l0.2-0.61c-0.05-0.02-0.13-0.05-0.24-0.08
	C53.85,37.75,53.71,37.73,53.54,37.73"/>
	<polygon class='logoline' points="61.39,40.73 58.15,40.73 58.15,38.02 57.41,38.02 57.41,44.1 58.15,44.1 58.15,41.38 61.39,41.38
	61.39,44.1 62.13,44.1 62.13,38.02 61.39,38.02 "/>
	<path class='logoline' d="M65.31,38.02l-2.23,6.09h0.77l0.61-1.72h2.46l0.61,1.72h0.77l-2.23-6.09H65.31z M64.69,41.73l0.97-2.74h0.05
	l0.97,2.74H64.69z"/>
	<polygon class='logoline' points="72.62,38.02 70.82,43.14 70.74,43.14 68.94,38.02 68.16,38.02 70.4,44.1 71.16,44.1 73.39,38.02 "/>
	<path class='logoline' d="M75.53,38.02L73.3,44.1h0.77l0.61-1.72h2.46l0.61,1.72h0.77l-2.23-6.09H75.53z M74.91,41.73l0.97-2.74h0.05
	l0.97,2.74H74.91z"/>
	<path class='logoline' d="M82.98,41.25c-0.18-0.13-0.37-0.23-0.56-0.3c-0.2-0.07-0.37-0.13-0.53-0.17l-0.62-0.17
	c-0.11-0.03-0.24-0.07-0.37-0.12c-0.14-0.05-0.26-0.11-0.39-0.19c-0.12-0.08-0.22-0.17-0.3-0.29s-0.12-0.25-0.12-0.42
	c0-0.2,0.06-0.37,0.17-0.52c0.11-0.15,0.27-0.27,0.47-0.36c0.2-0.09,0.44-0.13,0.71-0.13c0.37,0,0.68,0.08,0.93,0.25
	c0.25,0.17,0.4,0.4,0.43,0.7h0.71c-0.01-0.31-0.1-0.58-0.28-0.82c-0.18-0.24-0.42-0.43-0.73-0.57c-0.31-0.14-0.65-0.21-1.05-0.21
	c-0.39,0-0.74,0.07-1.05,0.21c-0.31,0.14-0.56,0.34-0.75,0.59c-0.18,0.26-0.28,0.55-0.28,0.89c0,0.41,0.14,0.74,0.42,0.99
	c0.28,0.25,0.65,0.45,1.13,0.59l0.75,0.21c0.21,0.06,0.41,0.13,0.6,0.21c0.18,0.08,0.33,0.18,0.45,0.31
	c0.11,0.13,0.17,0.29,0.17,0.49c0,0.22-0.07,0.42-0.2,0.58c-0.13,0.17-0.31,0.29-0.53,0.39c-0.22,0.09-0.48,0.14-0.76,0.14
	c-0.24,0-0.47-0.04-0.68-0.11c-0.21-0.07-0.38-0.18-0.52-0.33c-0.14-0.15-0.21-0.34-0.23-0.57h-0.76c0.02,0.33,0.13,0.62,0.31,0.88
	c0.18,0.25,0.43,0.45,0.75,0.59c0.32,0.14,0.7,0.21,1.13,0.21c0.47,0,0.86-0.08,1.19-0.23c0.33-0.16,0.58-0.37,0.75-0.63
	c0.17-0.27,0.26-0.56,0.26-0.89c0-0.29-0.06-0.53-0.18-0.72C83.31,41.53,83.16,41.37,82.98,41.25"/>
	<polygon class='logoline' points="91.15,40.73 87.9,40.73 87.9,38.02 87.17,38.02 87.17,44.1 87.9,44.1 87.9,41.38 91.15,41.38
	91.15,44.1 91.89,44.1 91.89,38.02 91.15,38.02 "/>
	<polygon class='logoline' points="94.1,41.38 96.84,41.38 96.84,40.73 94.1,40.73 94.1,38.67 97.03,38.67 97.03,38.02 93.36,38.02
	93.36,44.1 97.08,44.1 97.08,43.45 94.1,43.45 "/>
	<path class='logoline' d="M100.07,38.02l-2.23,6.09h0.77l0.61-1.72h2.46l0.61,1.72h0.77l-2.23-6.09H100.07z M99.46,41.73l0.97-2.74h0.05
	l0.97,2.74H99.46z"/>
	<polygon class='logoline' points="104.76,38.02 104.02,38.02 104.02,44.1 107.58,44.1 107.58,43.45 104.76,43.45 "/>
	<polygon class='logoline' points="107.58,38.67 109.5,38.67 109.5,44.1 110.23,44.1 110.23,38.67 112.15,38.67 112.15,38.02
	107.58,38.02 "/>
	<polygon class='logoline' points="117.27,40.73 114.03,40.73 114.03,38.02 113.29,38.02 113.29,44.1 114.03,44.1 114.03,41.38
	117.27,41.38 117.27,44.1 118.01,44.1 118.01,38.02 117.27,38.02 "/>
	<path class='logoline' d="M125.5,43.03c0.12-0.14,0.22-0.34,0.31-0.6c0.09-0.26,0.14-0.58,0.14-0.99h-0.68c0,0.33-0.05,0.62-0.16,0.88
	c-0.03,0.07-0.07,0.13-0.1,0.2l-1.32-1.61l0.45-0.33c0.25-0.18,0.45-0.38,0.59-0.6c0.14-0.21,0.22-0.47,0.22-0.76
	c0-0.23-0.06-0.43-0.18-0.63c-0.12-0.19-0.29-0.35-0.51-0.47c-0.22-0.12-0.48-0.18-0.79-0.18c-0.3,0-0.56,0.06-0.78,0.17
	c-0.22,0.12-0.39,0.28-0.51,0.49c-0.12,0.21-0.18,0.45-0.18,0.72c0,0.24,0.05,0.46,0.16,0.66c0.1,0.2,0.24,0.41,0.42,0.62
	c0.05,0.06,0.1,0.12,0.15,0.18c-0.22,0.15-0.42,0.31-0.6,0.46c-0.19,0.17-0.34,0.35-0.45,0.55c-0.11,0.2-0.16,0.42-0.16,0.67
	c0,0.33,0.08,0.62,0.24,0.88c0.16,0.26,0.38,0.46,0.67,0.6c0.29,0.15,0.63,0.22,1.03,0.22c0.29,0,0.59-0.05,0.88-0.16
	c0.27-0.1,0.5-0.25,0.69-0.45l0.43,0.52h0.84l-0.85-1.03C125.48,43.06,125.49,43.05,125.5,43.03 M122.82,38.98
	c0.07-0.12,0.16-0.22,0.28-0.3c0.12-0.08,0.25-0.12,0.41-0.12c0.22,0,0.4,0.07,0.53,0.22c0.14,0.14,0.2,0.29,0.2,0.45
	c0,0.21-0.05,0.38-0.16,0.51c-0.1,0.13-0.24,0.25-0.41,0.36l-0.4,0.3c-0.04-0.05-0.09-0.11-0.13-0.17c-0.12-0.15-0.22-0.3-0.3-0.45
	c-0.08-0.14-0.12-0.29-0.12-0.43C122.72,39.22,122.76,39.1,122.82,38.98 M124.11,43.42c-0.22,0.1-0.44,0.15-0.67,0.15
	c-0.24,0-0.45-0.05-0.63-0.15c-0.18-0.1-0.32-0.23-0.42-0.4c-0.1-0.16-0.15-0.34-0.15-0.53c0-0.08,0.05-0.22,0.15-0.41
	c0.1-0.19,0.28-0.39,0.55-0.59l0.23-0.17c0,0,0,0,0,0l1.45,1.75C124.46,43.22,124.29,43.34,124.11,43.42"/>
	<polygon class='logoline' points="131.61,40.86 131.54,40.86 129.85,38.02 129.01,38.02 131.21,41.6 131.21,44.1 131.95,44.1
	131.95,41.6 134.14,38.02 133.3,38.02 "/>
	<path class='logoline' d="M138.64,38.32c-0.4-0.25-0.86-0.38-1.38-0.38c-0.52,0-0.98,0.13-1.38,0.38c-0.4,0.25-0.72,0.61-0.95,1.08
	c-0.23,0.47-0.35,1.02-0.35,1.66c0,0.64,0.12,1.2,0.35,1.66c0.23,0.47,0.55,0.83,0.95,1.08c0.4,0.25,0.87,0.38,1.38,0.38
	c0.52,0,0.98-0.13,1.38-0.38c0.4-0.25,0.72-0.61,0.95-1.08c0.23-0.47,0.35-1.02,0.35-1.66c0-0.64-0.12-1.2-0.35-1.66
	C139.37,38.93,139.05,38.57,138.64,38.32 M138.97,42.39c-0.18,0.36-0.41,0.64-0.71,0.82c-0.3,0.19-0.63,0.28-1,0.28
	c-0.37,0-0.7-0.09-1-0.28c-0.3-0.19-0.53-0.46-0.71-0.82c-0.18-0.36-0.26-0.81-0.26-1.33c0-0.53,0.09-0.97,0.26-1.33
	c0.18-0.36,0.41-0.64,0.71-0.82c0.3-0.19,0.63-0.28,1-0.28c0.37,0,0.7,0.09,1,0.28c0.3,0.19,0.54,0.46,0.71,0.82
	c0.18,0.36,0.26,0.81,0.26,1.33C139.23,41.59,139.14,42.03,138.97,42.39"/>
	<path class='logoline' d="M145.17,38.02v3.97c0,0.3-0.07,0.56-0.19,0.79c-0.13,0.23-0.32,0.41-0.56,0.54c-0.24,0.13-0.53,0.2-0.87,0.2
	c-0.34,0-0.63-0.07-0.87-0.2c-0.24-0.13-0.43-0.31-0.56-0.54c-0.13-0.23-0.2-0.49-0.2-0.79v-3.97h-0.74v4.03
	c0,0.42,0.1,0.79,0.29,1.11c0.19,0.33,0.47,0.58,0.82,0.77c0.36,0.19,0.77,0.28,1.25,0.28c0.48,0,0.89-0.09,1.25-0.28
	c0.35-0.19,0.63-0.44,0.82-0.77s0.29-0.7,0.29-1.11v-4.03H145.17z"/>
	<path class='logoline' d="M59.36,24.14H41.65c-0.33,0-0.54,0.21-0.54,0.54v3.57c0,0.33,0.21,0.54,0.54,0.54h17.72
	c0.33,0,0.54-0.21,0.54-0.54v-3.57C59.9,24.35,59.69,24.14,59.36,24.14"/>
	<path class='logoline' d="M59.36,11.95H41.65c-0.33,0-0.54,0.21-0.54,0.54v3.57c0,0.33,0.21,0.54,0.54,0.54h17.72
	c0.33,0,0.54-0.21,0.54-0.54v-3.57C59.9,12.15,59.69,11.95,59.36,11.95"/>
	<path class='logoline' d="M59.36-0.25H41.65c-0.33,0-0.54,0.21-0.54,0.54v3.57c0,0.33,0.21,0.54,0.54,0.54h17.72
	c0.33,0,0.54-0.21,0.54-0.54V0.29C59.9-0.04,59.69-0.25,59.36-0.25"/>
	<path class='logoline' d="M88.78,14.22C88.76,7.31,84.19,0.41,75.13-0.21c-0.46-0.04-1.24-0.04-2.36-0.04h-6.89
	c-0.33,0-0.54,0.21-0.54,0.54v3.57c0,0.33,0.21,0.54,0.54,0.54h7.84c2.75,0,4.91,0.86,6.51,2.21c0.03,0.02,0.06,0.05,0.09,0.07
	c0.04,0.03,0.07,0.06,0.1,0.1c2.1,1.9,3.15,4.68,3.15,7.47c0,2.79-1.05,5.58-3.15,7.47c-0.03,0.03-0.06,0.07-0.1,0.1
	c-0.03,0.02-0.06,0.05-0.09,0.07c-1.6,1.35-3.77,2.21-6.51,2.21h-7.84c-0.33,0-0.54,0.21-0.54,0.54v3.57c0,0.33,0.21,0.54,0.54,0.54
	h6.89h0.02l-0.02,0.04c1.12,0,1.91,0,2.36-0.04c0.72-0.07,1.41-0.17,2.07-0.31c5.11-0.96,8.53-4.09,10.26-7.95
	c0.88-1.94,1.32-4.07,1.32-6.22c0-0.01,0-0.01,0-0.02C88.78,14.24,88.78,14.24,88.78,14.22L88.78,14.22"/>
	<path class='logoline' d="M112.52,24.14H94.8c-0.33,0-0.54,0.21-0.54,0.54v3.57c0,0.33,0.21,0.54,0.54,0.54h17.72
	c0.33,0,0.54-0.21,0.54-0.54v-3.57C113.06,24.35,112.85,24.14,112.52,24.14"/>
	<path class='logoline' d="M112.52-0.25H94.8c-0.33,0-0.54,0.21-0.54,0.54v3.57c0,0.33,0.21,0.54,0.54,0.54h17.72
	c0.33,0,0.54-0.21,0.54-0.54V0.29C113.06-0.04,112.85-0.25,112.52-0.25"/>
	<path class='logoline' d="M112.52,11.95H94.8c-0.33,0-0.54,0.21-0.54,0.54v3.57c0,0.33,0.21,0.54,0.54,0.54h17.72
	c0.33,0,0.54-0.21,0.54-0.54v-3.57C113.06,12.15,112.85,11.95,112.52,11.95"/>
	<path class='logoline' d="M145.91,28.71L132.8,0.12c-0.08-0.21-0.33-0.37-0.58-0.37c-0.25,0-0.54,0.17-0.62,0.37l-13.11,28.59
	c-0.12,0.29,0,0.5,0.33,0.5h4.11c0.29,0,0.62-0.21,0.75-0.5l8.05-17.43c0.17-0.33,0.33-0.5,0.5-0.5s0.33,0.17,0.5,0.5l3.73,8.13
	l4.27,9.29c0.12,0.29,0.46,0.5,0.79,0.5h4.07C145.91,29.21,146.03,29,145.91,28.71"/>
	<path class='logoline' d="M30.75-0.25h-0.58c-0.33,0-0.66,0.21-0.79,0.46L19.18,19.58c-0.17,0.33-0.37,0.46-0.54,0.46
	c-0.3,0.13-0.53,0-0.53,0c-0.17,0-0.37-0.12-0.54-0.46L7.36,0.2C7.23-0.04,6.9-0.25,6.57-0.25H5.99c-0.33,0-0.58,0.21-0.62,0.54
	L1.17,28.25c-0.04,0.33,0.12,0.54,0.46,0.54h3.82c0.33,0,0.58-0.21,0.62-0.54l2.28-14.89c0.08-0.66,0.37-0.75,0.71-0.12l7.97,15.06
	c0.17,0.29,0.46,0.5,0.79,0.5h0.53h0.05h0.53c0.33,0,0.62-0.21,0.79-0.5l7.97-15.06c0.33-0.62,0.62-0.54,0.71,0.12l2.28,14.89
	c0.04,0.33,0.29,0.54,0.62,0.54h3.82c0.33,0,0.5-0.21,0.46-0.54L31.37,0.29C31.33-0.04,31.08-0.25,30.75-0.25"/>
</svg>
